# xmcd
#
# Track frame offsets:
#	150
#	12098
#	24435
#	36343
#	45528
#	53900
#	64133
#	76416
#	88164
#	100187
#	116198
#	130891
#	144187
#	156616
#	168410
#	182953
#	200025
#	213291
#	226198
#	237101
#
# Disc length: 3332 seconds
# Revision: 3
# Processed by: cddbd v1.5.2PL0 Copyright (c) Steve Scherf et al.
# Submitted via: dBpowerAMP V12.0
#
DISCID=150d0214
DTITLE=Various Artist - Very Best of Country and Western
DYEAR=1999
DGENRE=Country
TTITLE0=Dolly Parton - Dolly Parton/Jolene
TTITLE1=Johnny Cash - I Walk the Line
TTITLE2=Donna Fargo - U. S. of A.
TTITLE3=Frankie Laine - Frankie Laine/Rawhide
TTITLE4=The Wild Bounch Orchestra - The Wild Bunch Orchestra/Bonanza
TTITLE5=The Wild Bounch Orchestra - High Chaparral
TTITLE6=Merle Haggard - Okie from Muskogee
TTITLE7=Donna Fargo - The Happiest Girl in the Whole USA
TTITLE8=Wanda Jackson - Stand by Your Man
TTITLE9=Billie Jo Spears - Blanket on the Ground
TTITLE10=Glen Campbell - Rhinestone Cowboy
TTITLE11=Dolly Parton - Here You Come Again
TTITLE12=Bobby Bare - 500 Miles Away from Home
TTITLE13=Tennessee Ernie Ford - Sixteen Tons
TTITLE14=Jeannie C. Riley - Harper Valley P. T. A.
TTITLE15=Tanya Tucker - Love Me Like You Used to Do
TTITLE16=Glen Campbell - Gentle on My Mind
TTITLE17=Charlie Rich - The Most Beautiful Girl in the World
TTITLE18=Roger Miller - King of the Road
TTITLE19=Billie Jo Spears - 57 Chevrolet
EXTD=
EXTT0=
EXTT1=
EXTT2=
EXTT3=
EXTT4=
EXTT5=
EXTT6=
EXTT7=
EXTT8=
EXTT9=
EXTT10=
EXTT11=
EXTT12=
EXTT13=
EXTT14=
EXTT15=
EXTT16=
EXTT17=
EXTT18=
EXTT19=
PLAYORDER=
